<svg version="1.1" id="svg2" xmlns="http://www.w3.org/2000/svg" xmlns:xlink="http://www.w3.org/1999/xlink" x="0px" y="0px" width="1147.592px" height="509.27px" viewBox="0 0 1147.592 509.27" enable-background="new 0 0 1147.592 509.27" xml:space="preserve"><polygon fill="none" stroke="#010101" stroke-miterlimit="10" points="60.0,60.0 95.0,60.0 60.0,94.0 "></polygon><polygon fill="none" stroke="#010101" stroke-miterlimit="10" points="120.0,60.0 153.0,60.0 138.0,75.0 "></polygon><polygon fill="none" stroke="#010101" stroke-miterlimit="10" points="180.0,60.0 212.0,60.0 212.0,101.0 194.0,93.0 "></polygon><polygon fill="none" stroke="#010101" stroke-miterlimit="10" points="275.0,120.0 293.0,135.0 291.0,158.0 288.0,182.0 279.0,177.0 240.0,154.0 "></polygon><polygon fill="none" stroke="#010101" stroke-miterlimit="10" points="302.0,135.0 317.0,120.0 331.0,153.0 325.0,154.0 300.0,158.0 "></polygon><polygon fill="none" stroke="#010101" stroke-miterlimit="10" points="360.0,120.0 399.0,143.0 380.0,146.0 360.0,186.0 "></polygon><polygon fill="none" stroke="#010101" stroke-miterlimit="10" points="423.0,124.0 448.0,120.0 450.0,138.0 452.0,159.0 445.0,157.0 420.0,148.0 "></polygon><polygon fill="none" stroke="#010101" stroke-miterlimit="10" points="480.0,181.0 486.0,180.0 504.0,188.0 482.0,199.0 "></polygon><polygon fill="none" stroke="#010101" stroke-miterlimit="10" points="540.0,191.0 562.0,180.0 542.0,212.0 "></polygon><polygon fill="none" stroke="#010101" stroke-miterlimit="10" points="600.0,212.0 620.0,180.0 620.0,217.0 "></polygon><polygon fill="none" stroke="#010101" stroke-miterlimit="10" points="661.0,180.0 686.0,189.0 660.0,195.0 "></polygon><polygon fill="none" stroke="#010101" stroke-miterlimit="10" points="720.0,243.0 739.0,240.0 748.0,245.0 747.0,260.0 744.0,283.0 "></polygon><polygon fill="none" stroke="#010101" stroke-miterlimit="10" points="800.0,240.0 824.0,280.0 780.0,280.0 "></polygon><polygon fill="none" stroke="#010101" stroke-miterlimit="10" points="843.0,246.0 869.0,240.0 876.0,242.0 840.0,269.0 "></polygon><polygon fill="none" stroke="#010101" stroke-miterlimit="10" points="900.0,267.0 936.0,240.0 956.0,267.0 "></polygon><polygon fill="none" stroke="#010101" stroke-miterlimit="10" points="960.0,300.0 980.0,305.0 980.0,327.0 "></polygon></svg>